<svg width="1000" height="1000" viewBox="0 0 1000 1000" fill="none" xmlns="http://www.w3.org/2000/svg">
<rect width="1000" height="1000" rx="500" fill="#F5F5F5"/>
<path d="M754.874 659.804L655.457 535.803C669.265 528.914 676.169 517.203 676.169 500.669C676.169 489.647 672.026 480.002 663.742 471.735C655.457 463.469 645.791 459.335 634.745 459.335L531.195 459.335L489.342 294L904 294C868.1 314.667 845.316 343.601 835.651 380.801C825.985 419.379 821.153 459.335 821.153 500.669C821.153 532.358 814.939 561.981 802.512 589.537C790.085 617.093 774.205 640.515 754.874 659.804Z" fill="#242424"/>
<path d="M458.396 294L365.256 294C312.785 294 268.6 313.978 232.699 353.934C196.798 395.268 178.848 444.18 178.848 500.669C178.848 542.003 174.015 581.27 164.35 618.471C154.684 657.049 131.901 686.671 96 707.338H563.027L521.174 542.003L365.256 542.003C354.209 542.003 344.544 537.87 336.259 529.603C327.974 521.336 323.832 511.691 323.832 500.669C323.832 489.647 327.974 480.002 336.259 471.735C344.544 463.469 354.209 459.335 365.256 459.335L500.248 459.335L458.396 294Z" fill="#242424"/>
</svg>
